<svg width="64" height="64" viewBox="0 0 64 64" fill="none" xmlns="http://www.w3.org/2000/svg" role="img" aria-labelledby="title">
  <title id="title">WhatsApp</title>
  <circle cx="32" cy="32" r="32" fill="#25D366"/>
  <path d="M16.1 48.8L18.4 40.4C16.9 37.9 16.2 35 16.2 32.1C16.2 23.3 23.4 16.2 32.2 16.2C36.4 16.2 40.4 17.9 43.4 20.9C46.4 23.9 48 27.9 48 32.1C48 40.9 40.9 48 32.1 48C29.4 48 26.8 47.3 24.5 46L16.1 48.8Z" fill="white"/>
  <path d="M24.9 42.9L25.4 43.2C27.4 44.4 29.7 45 32.1 45C39.2 45 45 39.2 45 32.1C45 28.7 43.7 25.4 41.2 23C38.8 20.5 35.6 19.2 32.1 19.2C25 19.2 19.2 25 19.2 32.1C19.2 34.7 20 37.2 21.4 39.3L21.8 39.8L20.5 44.4L24.9 42.9Z" fill="#25D366"/>
  <path d="M28.2 25.4C27.9 24.7 27.6 24.7 27.3 24.7H26.5C26.2 24.7 25.8 24.8 25.4 25.2C25 25.7 24 26.6 24 28.5C24 30.5 25.5 32.4 25.7 32.7C25.9 33 28.7 37.5 33.1 39.3C36.8 40.8 37.5 40.5 38.3 40.4C39.1 40.3 40.9 39.3 41.3 38.3C41.7 37.3 41.7 36.5 41.6 36.3C41.4 36.1 41.1 36 40.7 35.8C40.2 35.6 38.1 34.5 37.7 34.4C37.3 34.2 37 34.1 36.7 34.6C36.4 35.1 35.5 36.2 35.2 36.5C35 36.8 34.7 36.8 34.2 36.6C33.7 36.3 32.2 35.8 30.4 34.1C29 32.8 28 31.3 27.7 30.8C27.5 30.3 27.7 30.1 27.9 29.8C28.1 29.6 28.4 29.3 28.6 29C28.8 28.8 28.9 28.5 29.1 28.2C29.2 27.9 29.2 27.6 29.1 27.4C29 27.1 28.5 26 28.2 25.4Z" fill="white"/>
</svg>
